<svg width="77" height="117" viewBox="0 0 77 117" fill="none" xmlns="http://www.w3.org/2000/svg">
<mask id="path-1-outside-1_1_181" maskUnits="userSpaceOnUse" x="-4.9831e-06" y="-0.000125698" width="77" height="117" fill="black">
<rect fill="white" x="-4.9831e-06" y="-0.000125698" width="77" height="117"/>
<path d="M17 112.434L1.34103 112.434L1.34103 104.426C1.34103 102.368 1.72132 100.831 2.4819 99.8173C3.22757 98.8032 4.21184 98.2962 5.43474 98.2962C6.24005 98.2962 6.94843 98.5124 7.55988 98.9449C8.15641 99.3625 8.63364 99.959 8.99156 100.734C9.33456 101.495 9.50607 102.405 9.50607 103.464L8.43231 103.016C8.43231 101.913 8.60381 100.951 8.94682 100.131C9.27491 99.3103 9.75959 98.6765 10.4009 98.2291C11.0272 97.7667 11.7953 97.5356 12.705 97.5356C14.0621 97.5356 15.1209 98.0874 15.8815 99.191C16.6272 100.28 17 101.875 17 103.978L17 112.434ZM13.8011 108.049L13.8011 104.336C13.8011 103.575 13.6743 103.001 13.4208 102.614C13.1524 102.211 12.7497 102.01 12.2128 102.01C11.676 102.01 11.2807 102.211 11.0272 102.614C10.7588 103.001 10.6246 103.575 10.6246 104.336L10.6246 108.363L7.55988 108.363L7.55988 105.007C7.55988 104.261 7.43312 103.702 7.17959 103.329C6.92607 102.957 6.54578 102.77 6.03872 102.77C5.53167 102.77 5.15884 102.957 4.92023 103.329C4.6667 103.702 4.53994 104.261 4.53994 105.007L4.53994 108.049L13.8011 108.049ZM17 93.2282L1.34103 93.2282L1.34103 88.7989L13.4879 88.7989L13.4879 81.3273L17 81.3273L17 93.2282ZM17 79.2875L1.34103 72.3752L1.34103 68.013L17 61.0783L17 65.6866L3.51092 71.1001L3.51092 69.3552L17 74.7688L17 79.2875ZM13.9577 75.507L10.6917 74.3661L10.6917 66.7156L13.9577 65.5747L13.9577 75.507ZM17.3132 50.2207C17.3132 51.4585 17.1193 52.6068 16.7316 53.6657C16.3289 54.7096 15.7622 55.6193 15.0314 56.3948C14.3007 57.1554 13.4432 57.7519 12.4589 58.1844C11.4597 58.6169 10.3636 58.8331 9.17051 58.8331C7.97745 58.8331 6.88878 58.6169 5.9045 58.1844C4.90531 57.7519 4.04034 57.1554 3.30959 56.3948C2.57884 55.6193 2.01959 54.7096 1.63184 53.6657C1.22918 52.6068 1.02785 51.4585 1.02785 50.2207C1.02785 48.7741 1.28138 47.4841 1.78843 46.3507C2.29548 45.2024 3.02623 44.2479 3.98069 43.4874L6.53086 46.306C5.93433 46.813 5.47947 47.3723 5.16629 47.9837C4.85311 48.5802 4.69652 49.2513 4.69652 49.997C4.69652 50.6383 4.80092 51.2274 5.0097 51.7642C5.21849 52.3011 5.52421 52.7634 5.92687 53.1512C6.31462 53.524 6.78439 53.8223 7.33618 54.046C7.88797 54.2548 8.49942 54.3591 9.17051 54.3591C9.84161 54.3591 10.4531 54.2548 11.0049 54.046C11.5566 53.8223 12.0339 53.524 12.4365 53.1512C12.8243 52.7634 13.1225 52.3011 13.3313 51.7642C13.5401 51.2274 13.6445 50.6383 13.6445 49.997C13.6445 49.2513 13.4879 48.5802 13.1747 47.9837C12.8616 47.3723 12.4067 46.813 11.8102 46.306L14.3603 43.4874C15.2999 44.2479 16.0306 45.2024 16.5526 46.3507C17.0597 47.4841 17.3132 48.7741 17.3132 50.2207ZM13.5327 35.5397L8.56653 35.7858L1.34103 29.0524L1.34103 24.1758L8.61126 30.8868L11.1838 33.3475L13.5327 35.5397ZM17 39.4992L1.34103 39.4992L1.34103 35.1147L17 35.1147L17 39.4992ZM17 28.9853L10.5351 34.0857L7.44803 31.2L17 23.8402L17 28.9853ZM46 114.313L30.341 107.401L30.341 103.039L46 96.1039L46 100.712L32.5109 106.126L32.5109 104.381L46 109.794L46 114.313ZM42.9577 110.533L39.6917 109.392L39.6917 101.741L42.9577 100.6L42.9577 110.533ZM46 92.8349L30.341 92.8349L30.341 89.1886L40.7654 80.5538L40.7654 82.2763L30.341 82.2763L30.341 77.9365L46 77.9365L46 81.5828L35.5756 90.2176L35.5756 88.4952L46 88.4952L46 92.8349ZM46 72.799L30.341 72.799L30.341 65.3945C30.341 63.6646 30.6617 62.1434 31.3029 60.8311C31.9442 59.5187 32.8465 58.4971 34.0097 57.7664C35.1729 57.0207 36.5599 56.6479 38.1705 56.6479C39.7662 56.6479 41.1532 57.0207 42.3313 57.7664C43.4946 58.4971 44.3968 59.5187 45.0381 60.831C45.6794 62.1434 46 63.6646 46 65.3945L46 72.799ZM42.4655 68.3697L42.4655 65.5735C42.4655 64.6787 42.3015 63.9032 41.9734 63.247C41.6304 62.5759 41.1383 62.0539 40.497 61.6811C39.8408 61.3083 39.0653 61.1219 38.1705 61.1219C37.2608 61.1219 36.4853 61.3083 35.844 61.6811C35.2028 62.0539 34.7181 62.5759 34.39 63.247C34.047 63.9032 33.8755 64.6787 33.8755 65.5735L33.8755 68.3697L42.4655 68.3697ZM75 108.474L68.3785 108.474L71.0405 107.445L59.341 114.447L59.341 109.772L67.8192 104.716L67.8192 107.423L59.341 102.345L59.341 98.0501L71.0405 105.03L68.3785 104.045L75 104.045L75 108.474ZM65.4033 90.9045L65.4033 83.6342L68.714 83.6342L68.714 90.9045L65.4033 90.9045ZM71.5774 90.5913L71.5774 82.4039L75 82.4039L75 94.9758L59.341 94.9758L59.341 82.6947L62.7636 82.6947L62.7636 90.5913L71.5774 90.5913ZM75 77.9327L59.341 77.9327L59.341 73.5035L71.4879 73.5035L71.4879 66.0319L75 66.0319L75 77.9327ZM75 62.2659L59.341 62.2659L59.341 57.8366L71.4879 57.8366L71.4879 50.3651L75 50.3651L75 62.2659ZM75.3132 38.9428C75.3132 40.1955 75.1118 41.3512 74.7092 42.4101C74.3065 43.4689 73.7398 44.3936 73.0091 45.184C72.2634 45.9595 71.3984 46.5634 70.4142 46.9959C69.4299 47.4284 68.3487 47.6447 67.1705 47.6447C65.9924 47.6447 64.9111 47.4284 63.9269 46.9959C62.9426 46.5634 62.0851 45.9595 61.3543 45.184C60.6087 44.3936 60.0345 43.4689 59.6318 42.4101C59.2292 41.3512 59.0279 40.1955 59.0279 38.9428C59.0279 37.6751 59.2292 36.5193 59.6318 35.4754C60.0345 34.4166 60.6087 33.4994 61.3543 32.7239C62.0851 31.9484 62.9426 31.3444 63.9269 30.9119C64.9111 30.4645 65.9924 30.2408 67.1705 30.2408C68.3487 30.2408 69.4373 30.4645 70.4365 30.9119C71.4208 31.3444 72.2783 31.9484 73.0091 32.7239C73.7398 33.4994 74.3065 34.4166 74.7092 35.4754C75.1118 36.5193 75.3132 37.6751 75.3132 38.9428ZM71.6445 38.9428C71.6445 38.3462 71.5401 37.7944 71.3313 37.2874C71.1225 36.7654 70.8243 36.318 70.4365 35.9452C70.0339 35.5574 69.5566 35.2592 69.0048 35.0504C68.4531 34.8267 67.8416 34.7148 67.1705 34.7148C66.4845 34.7148 65.8731 34.8267 65.3362 35.0504C64.7844 35.2592 64.3146 35.5574 63.9269 35.9452C63.5242 36.318 63.2185 36.7654 63.0097 37.2874C62.8009 37.7944 62.6965 38.3462 62.6965 38.9428C62.6965 39.5393 62.8009 40.0985 63.0097 40.6205C63.2185 41.1275 63.5242 41.5749 63.9269 41.9627C64.3146 42.3355 64.7844 42.6338 65.3362 42.8575C65.8731 43.0663 66.4845 43.1707 67.1705 43.1707C67.8416 43.1707 68.4531 43.0663 69.0049 42.8575C69.5566 42.6338 70.0339 42.3355 70.4365 41.9627C70.8243 41.5749 71.1225 41.1275 71.3313 40.6205C71.5401 40.0985 71.6445 39.5393 71.6445 38.9428ZM75 22.562L59.341 27.64L59.341 23.0765L72.8972 18.8039L72.8972 21.108L59.341 16.6116L59.341 12.5403L72.8972 8.28998L72.8972 10.5046L59.341 6.09773L59.341 1.8698L75 6.94778L75 11.6902L63.4795 15.3141L63.4795 14.0391L75 17.8196L75 22.562Z"/>
</mask>
<path d="M17 112.434L17 113.413L17.9787 113.413L17.9787 112.434L17 112.434ZM1.34103 112.434L0.362349 112.434L0.362349 113.413L1.34103 113.413L1.34103 112.434ZM2.4819 99.8173L3.26488 100.405L3.27038 100.397L2.4819 99.8173ZM7.55988 98.9449L6.99472 99.7439L6.99864 99.7467L7.55988 98.9449ZM8.99156 100.734L9.88375 100.332L9.88016 100.324L8.99156 100.734ZM9.50607 103.464L9.12965 104.367L10.4848 104.932L10.4848 103.464L9.50607 103.464ZM8.43231 103.016L7.45362 103.016L7.45362 103.669L8.05589 103.92L8.43231 103.016ZM8.94682 100.131L9.84973 100.508L9.85267 100.501L9.8555 100.494L8.94682 100.131ZM10.4009 98.2291L10.9608 99.0317L10.9716 99.0242L10.9821 99.0165L10.4009 98.2291ZM15.8815 99.191L16.689 98.6379L16.6873 98.6356L15.8815 99.191ZM13.8011 108.049L13.8011 109.028L14.7798 109.028L14.7798 108.049L13.8011 108.049ZM13.4208 102.614L14.24 102.078L14.2351 102.071L13.4208 102.614ZM11.0272 102.614L11.8319 103.171L11.844 103.153L11.8554 103.135L11.0272 102.614ZM10.6246 108.363L10.6246 109.341L11.6032 109.341L11.6032 108.363L10.6246 108.363ZM7.55988 108.363L6.5812 108.363L6.5812 109.341L7.55988 109.341L7.55988 108.363ZM7.17959 103.329L7.98889 102.779L7.17959 103.329ZM4.92023 103.329L5.72953 103.88L5.73719 103.868L5.74455 103.857L4.92023 103.329ZM4.53994 108.049L3.56125 108.049L3.56125 109.028L4.53994 109.028L4.53994 108.049ZM17 111.455L1.34103 111.455L1.34103 113.413L17 113.413L17 111.455ZM2.31972 112.434L2.31972 104.426L0.362349 104.426L0.362349 112.434L2.31972 112.434ZM2.31972 104.426C2.31972 102.458 2.68877 101.173 3.26485 100.405L1.69895 99.2301C0.753875 100.49 0.362349 102.277 0.362349 104.426L2.31972 104.426ZM3.27038 100.397C3.838 99.6251 4.53377 99.2749 5.43473 99.2749L5.43473 97.3175C3.88992 97.3175 2.61713 97.9813 1.69342 99.2376L3.27038 100.397ZM5.43473 99.2749C6.0537 99.2749 6.56121 99.4373 6.99472 99.7439L8.12504 98.1459C7.33566 97.5876 6.42641 97.3175 5.43473 97.3175L5.43473 99.2749ZM6.99864 99.7467C7.43047 100.049 7.80493 100.499 8.10295 101.145L9.88016 100.324C9.46235 99.4191 8.88235 98.676 8.12112 98.1431L6.99864 99.7467ZM8.0994 101.137C8.37221 101.742 8.52738 102.507 8.52738 103.464L10.4848 103.464C10.4848 102.302 10.2969 101.248 9.88371 100.332L8.0994 101.137ZM9.88248 102.56L8.80873 102.113L8.05589 103.92L9.12965 104.367L9.88248 102.56ZM9.41099 103.016C9.41099 102.012 9.56724 101.184 9.84973 100.508L8.0439 99.7529C7.64039 100.718 7.45362 101.813 7.45362 103.016L9.41099 103.016ZM9.8555 100.494C10.1222 99.8273 10.4959 99.3561 10.9608 99.0317L9.84088 97.4264C9.02329 97.9968 8.42763 98.7933 8.03813 99.767L9.8555 100.494ZM10.9821 99.0165C11.4129 98.6985 11.968 98.5143 12.705 98.5143L12.705 96.5569C11.6226 96.5569 10.6415 96.835 9.81967 97.4416L10.9821 99.0165ZM12.705 98.5143C13.745 98.5143 14.5005 98.9118 15.0757 99.7463L16.6873 98.6356C15.7414 97.263 14.3791 96.5569 12.705 96.5569L12.705 98.5143ZM15.0741 99.744C15.6598 100.599 16.0213 101.965 16.0213 103.978L17.9787 103.978C17.9787 101.786 17.5945 99.96 16.6889 98.6379L15.0741 99.744ZM16.0213 103.978L16.0213 112.434L17.9787 112.434L17.9787 103.978L16.0213 103.978ZM14.7798 108.049L14.7798 104.336L12.8224 104.336L12.8224 108.049L14.7798 108.049ZM14.7798 104.336C14.7798 103.495 14.6448 102.697 14.2399 102.078L12.6017 103.149C12.7038 103.305 12.8224 103.656 12.8224 104.336L14.7798 104.336ZM14.2351 102.071C13.763 101.362 13.0348 101.031 12.2128 101.031L12.2128 102.988C12.4646 102.988 12.5418 103.059 12.6065 103.156L14.2351 102.071ZM12.2128 101.031C11.3907 101.031 10.6574 101.364 10.199 102.092L11.8554 103.135C11.9041 103.058 11.9612 102.988 12.2128 102.988L12.2128 101.031ZM10.2226 102.056C9.79061 102.68 9.64588 103.488 9.64588 104.336L11.6032 104.336C11.6032 103.663 11.727 103.322 11.8319 103.171L10.2226 102.056ZM9.64588 104.336L9.64588 108.363L11.6032 108.363L11.6032 104.336L9.64588 104.336ZM10.6246 107.384L7.55988 107.384L7.55988 109.341L10.6246 109.341L10.6246 107.384ZM8.53857 108.363L8.53857 105.007L6.5812 105.007L6.5812 108.363L8.53857 108.363ZM8.53857 105.007C8.53857 104.181 8.4037 103.389 7.98889 102.779L6.37029 103.88C6.46254 104.015 6.5812 104.342 6.5812 105.007L8.53857 105.007ZM7.98889 102.779C7.52814 102.102 6.82266 101.791 6.03872 101.791L6.03872 103.749C6.26889 103.749 6.32399 103.812 6.37029 103.88L7.98889 102.779ZM6.03872 101.791C5.25499 101.791 4.54314 102.103 4.09591 102.802L5.74455 103.857C5.77454 103.81 5.80835 103.749 6.03872 103.749L6.03872 101.791ZM4.11093 102.779C3.69612 103.389 3.56125 104.181 3.56125 105.007L5.51862 105.007C5.51862 104.342 5.63728 104.015 5.72953 103.88L4.11093 102.779ZM3.56125 105.007L3.56125 108.049L5.51862 108.049L5.51862 105.007L3.56125 105.007ZM4.53994 109.028L13.8011 109.028L13.8011 107.071L4.53994 107.071L4.53994 109.028ZM17 93.2282L17 94.2068L17.9787 94.2068L17.9787 93.2282L17 93.2282ZM1.34103 93.2282L0.362348 93.2282L0.362348 94.2068L1.34103 94.2068L1.34103 93.2282ZM1.34103 88.7989L1.34103 87.8202L0.362348 87.8202L0.362348 88.7989L1.34103 88.7989ZM13.4879 88.7989L13.4879 89.7776L14.4666 89.7776L14.4666 88.7989L13.4879 88.7989ZM13.4879 81.3273L13.4879 80.3487L12.5092 80.3487L12.5092 81.3273L13.4879 81.3273ZM17 81.3273L17.9787 81.3273L17.9787 80.3487L17 80.3487L17 81.3273ZM17 92.2495L1.34103 92.2495L1.34103 94.2068L17 94.2068L17 92.2495ZM2.31972 93.2282L2.31972 88.7989L0.362348 88.7989L0.362348 93.2282L2.31972 93.2282ZM1.34103 89.7776L13.4879 89.7776L13.4879 87.8202L1.34103 87.8202L1.34103 89.7776ZM14.4666 88.7989L14.4666 81.3273L12.5092 81.3273L12.5092 88.7989L14.4666 88.7989ZM13.4879 82.306L17 82.306L17 80.3487L13.4879 80.3487L13.4879 82.306ZM16.0213 81.3273L16.0213 93.2282L17.9787 93.2282L17.9787 81.3273L16.0213 81.3273ZM17 79.2875L16.6048 80.1828L17.9787 80.7893L17.9787 79.2875L17 79.2875ZM1.34103 72.3752L0.362347 72.3752L0.362347 73.0129L0.945807 73.2705L1.34103 72.3752ZM1.34103 68.013L0.944737 67.1182L0.362347 67.3761L0.362347 68.013L1.34103 68.013ZM17 61.0783L17.9787 61.0783L17.9787 59.5746L16.6037 60.1835L17 61.0783ZM17 65.6866L17.3645 66.5948L17.9787 66.3483L17.9787 65.6866L17 65.6866ZM3.51092 71.1001L2.53223 71.1001L2.53223 72.5474L3.87543 72.0083L3.51092 71.1001ZM3.51092 69.3552L3.87543 68.447L2.53223 67.9079L2.53223 69.3552L3.51092 69.3552ZM17 74.7688L17.9787 74.7688L17.9787 74.107L17.3645 73.8605L17 74.7688ZM13.9577 75.507L13.6349 76.4309L14.9364 76.8855L14.9364 75.507L13.9577 75.507ZM10.6917 74.3661L9.71299 74.3661L9.71299 75.0609L10.3689 75.29L10.6917 74.3661ZM10.6917 66.7156L10.3689 65.7916L9.71299 66.0208L9.71299 66.7156L10.6917 66.7156ZM13.9577 65.5747L14.9364 65.5747L14.9364 64.1962L13.6349 64.6508L13.9577 65.5747ZM17.3952 78.3921L1.73626 71.4798L0.945807 73.2705L16.6048 80.1828L17.3952 78.3921ZM2.31972 72.3752L2.31972 68.013L0.362347 68.013L0.362347 72.3752L2.31972 72.3752ZM1.73733 68.9079L17.3963 61.9732L16.6037 60.1835L0.944737 67.1182L1.73733 68.9079ZM16.0213 61.0783L16.0213 65.6866L17.9787 65.6866L17.9787 61.0783L16.0213 61.0783ZM16.6355 64.7783L3.1464 70.1918L3.87543 72.0083L17.3645 66.5948L16.6355 64.7783ZM4.4896 71.1001L4.4896 69.3552L2.53223 69.3552L2.53223 71.1001L4.4896 71.1001ZM3.1464 70.2635L16.6355 75.677L17.3645 73.8605L3.87543 68.447L3.1464 70.2635ZM16.0213 74.7688L16.0213 79.2875L17.9787 79.2875L17.9787 74.7688L16.0213 74.7688ZM14.2804 74.583L11.0144 73.4422L10.3689 75.29L13.6349 76.4309L14.2804 74.583ZM11.6704 74.3661L11.6704 66.7156L9.71299 66.7156L9.71299 74.3661L11.6704 74.3661ZM11.0144 67.6395L14.2804 66.4986L13.6349 64.6508L10.3689 65.7916L11.0144 67.6395ZM12.979 65.5747L12.979 75.507L14.9364 75.507L14.9364 65.5747L12.979 65.5747ZM16.7316 53.6657L17.6447 54.0179L17.6477 54.0101L17.6506 54.0022L16.7316 53.6657ZM15.0314 56.3948L15.7372 57.0729L15.7437 57.066L15.0314 56.3948ZM12.4589 58.1844L12.8477 59.0826L12.8526 59.0804L12.4589 58.1844ZM5.9045 58.1844L6.29821 57.2884L6.29326 57.2862L5.9045 58.1844ZM3.30959 56.3948L2.59728 57.066L2.60385 57.0729L3.30959 56.3948ZM1.63184 53.6657L2.54931 53.3249L2.54661 53.3178L1.63184 53.6657ZM1.78843 46.3507L2.6818 46.7504L2.68372 46.746L1.78843 46.3507ZM3.98069 43.4874L4.70642 42.8307L4.08968 42.1491L3.37077 42.722L3.98069 43.4874ZM6.53086 46.306L7.1647 47.0517L7.93384 46.3979L7.25659 45.6494L6.53086 46.306ZM5.16629 47.9837L6.03286 48.4387L6.03736 48.4299L5.16629 47.9837ZM5.0097 51.7642L5.92184 51.4095L5.0097 51.7642ZM5.92687 53.1512L5.24801 53.8561L5.24854 53.8566L5.92687 53.1512ZM7.33618 54.046L6.96848 54.953L6.97911 54.9573L6.98983 54.9613L7.33618 54.046ZM11.0049 54.046L11.3512 54.9613L11.3619 54.9573L11.3725 54.953L11.0049 54.046ZM12.4365 53.1512L13.1015 53.8693L13.1153 53.8565L13.1286 53.8432L12.4365 53.1512ZM13.3313 51.7642L12.4192 51.4095L13.3313 51.7642ZM13.1747 47.9837L12.3036 48.4299L12.3082 48.4386L13.1747 47.9837ZM11.8102 46.306L11.0844 45.6494L10.4072 46.3979L11.1763 47.0517L11.8102 46.306ZM14.3603 43.4873L14.9761 42.7267L14.2561 42.1438L13.6346 42.8307L14.3603 43.4873ZM16.5526 46.3507L17.446 45.951L17.4436 45.9457L16.5526 46.3507ZM16.3345 50.2207C16.3345 51.3549 16.1571 52.3881 15.8126 53.3291L17.6506 54.0022C18.0815 52.8255 18.2919 51.5621 18.2919 50.2207L16.3345 50.2207ZM15.8184 53.3135C15.4591 54.2451 14.9586 55.045 14.3192 55.7236L15.7437 57.066C16.5658 56.1936 17.1987 55.1741 17.6447 54.0179L15.8184 53.3135ZM14.3257 55.7168C13.6854 56.3832 12.9345 56.9064 12.0652 57.2884L12.8526 59.0804C13.9518 58.5974 14.9159 57.9276 15.7372 57.0729L14.3257 55.7168ZM12.0701 57.2862C11.205 57.6607 10.2428 57.8544 9.17051 57.8544L9.17051 59.8118C10.4844 59.8118 11.7144 59.5731 12.8477 59.0826L12.0701 57.2862ZM9.17051 57.8544C8.09805 57.8544 7.1454 57.6607 6.2982 57.2884L5.5108 59.0804C6.63216 59.5731 7.85685 59.8118 9.17051 59.8118L9.17051 57.8544ZM6.29326 57.2862C5.40936 56.9037 4.65315 56.3806 4.01532 55.7168L2.60385 57.0729C3.42753 57.9302 4.40127 58.6002 5.51575 59.0826L6.29326 57.2862ZM4.02186 55.7236C3.38496 55.0477 2.89353 54.2517 2.54929 53.3249L0.714397 54.0064C1.14564 55.1675 1.77271 56.1909 2.59731 57.066L4.02186 55.7236ZM2.54661 53.3178C2.18996 52.3799 2.00654 51.3507 2.00654 50.2207L0.0491672 50.2207C0.0491673 51.5664 0.268403 52.8337 0.717068 54.0135L2.54661 53.3178ZM2.00654 50.2207C2.00654 48.8893 2.23952 47.739 2.68179 46.7504L0.89507 45.951C0.32324 47.2292 0.0491672 48.6589 0.0491672 50.2207L2.00654 50.2207ZM2.68372 46.746C3.12882 45.738 3.76338 44.9119 4.59061 44.2527L3.37077 42.722C2.28909 43.5839 1.46215 44.6668 0.893141 45.9554L2.68372 46.746ZM3.25496 44.144L5.80513 46.9626L7.25659 45.6494L4.70642 42.8307L3.25496 44.144ZM5.89702 45.5603C5.21609 46.1391 4.67465 46.7968 4.29522 47.5376L6.03736 48.4299C6.2843 47.9478 6.65256 47.487 7.1647 47.0517L5.89702 45.5603ZM4.29977 47.5288C3.90531 48.2801 3.71784 49.1101 3.71784 49.997L5.67521 49.997C5.67521 49.3926 5.80092 48.8804 6.03282 48.4386L4.29977 47.5288ZM3.71784 49.997C3.71784 50.7459 3.84009 51.4569 4.09756 52.119L5.92184 51.4095C5.76174 50.9978 5.67521 50.5306 5.67521 49.997L3.71784 49.997ZM4.09756 52.119C4.35618 52.784 4.73996 53.3669 5.24801 53.8561L6.60573 52.4462C6.30847 52.1599 6.0808 51.8183 5.92184 51.4095L4.09756 52.119ZM5.24854 53.8566C5.73519 54.3246 6.31361 54.6875 6.96848 54.953L7.70388 53.139C7.25517 52.9571 6.89405 52.7234 6.60521 52.4457L5.24854 53.8566ZM6.98983 54.9613C7.66642 55.2173 8.39719 55.3378 9.17051 55.3378L9.17051 53.3805C8.60164 53.3805 8.10952 53.2922 7.68253 53.1306L6.98983 54.9613ZM9.17051 55.3378C9.94384 55.3378 10.6746 55.2173 11.3512 54.9613L10.6585 53.1306C10.2315 53.2922 9.73939 53.3805 9.17051 53.3805L9.17051 55.3378ZM11.3725 54.953C12.0247 54.6886 12.6048 54.3291 13.1015 53.8693L11.7716 52.433C11.4629 52.7189 11.0886 52.956 10.6372 53.139L11.3725 54.953ZM13.1286 53.8432C13.6171 53.3547 13.988 52.7758 14.2435 52.119L12.4192 51.4095C12.2571 51.8264 12.0315 52.1722 11.7445 52.4591L13.1286 53.8432ZM14.2435 52.119C14.5009 51.4569 14.6232 50.7459 14.6232 49.997L12.6658 49.997C12.6658 50.5306 12.5793 50.9978 12.4192 51.4095L14.2435 52.119ZM14.6232 49.997C14.6232 49.1101 14.4357 48.2801 14.0413 47.5288L12.3082 48.4386C12.5401 48.8804 12.6658 49.3926 12.6658 49.997L14.6232 49.997ZM14.0458 47.5376C13.6664 46.7968 13.1249 46.1391 12.444 45.5603L11.1763 47.0517C11.6885 47.487 12.0567 47.9478 12.3037 48.4299L14.0458 47.5376ZM12.5359 46.9626L15.0861 44.144L13.6346 42.8307L11.0844 45.6494L12.5359 46.9626ZM13.7446 44.248C14.5608 44.9088 15.1997 45.7395 15.6616 46.7557L17.4436 45.9457C16.8615 44.6653 16.0389 43.587 14.9761 42.7267L13.7446 44.248ZM15.6592 46.7504C16.1015 47.739 16.3345 48.8893 16.3345 50.2207L18.2919 50.2207C18.2919 48.6589 18.0178 47.2292 17.446 45.951L15.6592 46.7504ZM13.5327 35.5397L13.5811 36.5172L15.8916 36.4027L14.2004 34.8243L13.5327 35.5397ZM8.56653 35.7858L7.8993 36.5018L8.20188 36.7838L8.61496 36.7633L8.56653 35.7858ZM1.34103 29.0524L0.362345 29.0524L0.362345 29.4782L0.673809 29.7684L1.34103 29.0524ZM1.34103 24.1758L2.00485 23.4567L0.362345 21.9405L0.362345 24.1758L1.34103 24.1758ZM8.61126 30.8868L9.28775 30.1795L9.28147 30.1735L9.27509 30.1676L8.61126 30.8868ZM11.1838 33.3475L10.5073 34.0548L10.516 34.0629L11.1838 33.3475ZM17 39.4992L17 40.4779L17.9787 40.4779L17.9787 39.4992L17 39.4992ZM1.34103 39.4992L0.362346 39.4992L0.362346 40.4779L1.34103 40.4779L1.34103 39.4992ZM1.34103 35.1147L1.34103 34.136L0.362346 34.136L0.362346 35.1147L1.34103 35.1147ZM17 35.1147L17.9787 35.1147L17.9787 34.136L17 34.136L17 35.1147ZM17 28.9853L17.6062 29.7537L17.9787 29.4598L17.9787 28.9853L17 28.9853ZM10.5351 34.0857L9.86675 34.8006L10.4811 35.3749L11.1413 34.854L10.5351 34.0857ZM7.44803 31.2L6.8507 30.4247L5.93789 31.128L6.7797 31.9149L7.44803 31.2ZM17 23.8402L17.9787 23.8402L17.9787 21.8507L16.4027 23.065L17 23.8402ZM13.4842 34.5622L8.51809 34.8083L8.61496 36.7633L13.5811 36.5172L13.4842 34.5622ZM9.23375 35.0698L2.00825 28.3365L0.673809 29.7684L7.8993 36.5018L9.23375 35.0698ZM2.31972 29.0524L2.31972 24.1758L0.362345 24.1758L0.362345 29.0524L2.31972 29.0524ZM0.677208 24.8949L7.94744 31.6059L9.27509 30.1676L2.00485 23.4567L0.677208 24.8949ZM7.93478 31.594L10.5073 34.0547L11.8603 32.6402L9.28775 30.1795L7.93478 31.594ZM10.516 34.0629L12.8649 36.2552L14.2004 34.8243L11.8516 32.632L10.516 34.0629ZM17 38.5205L1.34103 38.5205L1.34103 40.4779L17 40.4779L17 38.5205ZM2.31972 39.4992L2.31972 35.1147L0.362346 35.1147L0.362346 39.4992L2.31972 39.4992ZM1.34103 36.0934L17 36.0934L17 34.136L1.34103 34.136L1.34103 36.0934ZM16.0213 35.1147L16.0213 39.4992L17.9787 39.4992L17.9787 35.1147L16.0213 35.1147ZM16.3938 28.217L9.9289 33.3173L11.1413 34.854L17.6062 29.7537L16.3938 28.217ZM11.2034 33.3707L8.11636 30.485L6.7797 31.9149L9.86675 34.8006L11.2034 33.3707ZM8.04536 31.9752L17.5973 24.6155L16.4027 23.065L6.8507 30.4247L8.04536 31.9752ZM16.0213 23.8402L16.0213 28.9853L17.9787 28.9853L17.9787 23.8402L16.0213 23.8402ZM46 114.313L45.6048 115.208L46.9787 115.815L46.9787 114.313L46 114.313ZM30.341 107.401L29.3624 107.401L29.3624 108.039L29.9458 108.296L30.341 107.401ZM30.341 103.039L29.9447 102.144L29.3623 102.402L29.3623 103.039L30.341 103.039ZM46 96.1039L46.9787 96.1039L46.9787 94.6001L45.6037 95.2091L46 96.1039ZM46 100.712L46.3645 101.62L46.9787 101.374L46.9787 100.712L46 100.712ZM32.5109 106.126L31.5322 106.126L31.5322 107.573L32.8754 107.034L32.5109 106.126ZM32.5109 104.381L32.8754 103.473L31.5322 102.933L31.5322 104.381L32.5109 104.381ZM46 109.794L46.9787 109.794L46.9787 109.133L46.3645 108.886L46 109.794ZM42.9577 110.533L42.6349 111.456L43.9364 111.911L43.9364 110.533L42.9577 110.533ZM39.6917 109.392L38.713 109.392L38.713 110.086L39.3689 110.316L39.6917 109.392ZM39.6917 101.741L39.3689 100.817L38.713 101.046L38.713 101.741L39.6917 101.741ZM42.9577 100.6L43.9364 100.6L43.9364 99.2217L42.6349 99.6763L42.9577 100.6ZM46.3952 113.418L30.7363 106.505L29.9458 108.296L45.6048 115.208L46.3952 113.418ZM31.3197 107.401L31.3197 103.039L29.3623 103.039L29.3624 107.401L31.3197 107.401ZM30.7373 103.933L46.3963 96.9988L45.6037 95.2091L29.9447 102.144L30.7373 103.933ZM45.0213 96.1039L45.0213 100.712L46.9787 100.712L46.9787 96.1039L45.0213 96.1039ZM45.6355 99.8039L32.1464 105.217L32.8754 107.034L46.3645 101.62L45.6355 99.8039ZM33.4896 106.126L33.4896 104.381L31.5322 104.381L31.5322 106.126L33.4896 106.126ZM32.1464 105.289L45.6355 110.703L46.3645 108.886L32.8754 103.473L32.1464 105.289ZM45.0213 109.794L45.0213 114.313L46.9787 114.313L46.9787 109.794L45.0213 109.794ZM43.2804 109.609L40.0144 108.468L39.3689 110.316L42.6349 111.456L43.2804 109.609ZM40.6704 109.392L40.6704 101.741L38.713 101.741L38.713 109.392L40.6704 109.392ZM40.0144 102.665L43.2804 101.524L42.6349 99.6763L39.3689 100.817L40.0144 102.665ZM41.979 100.6L41.979 110.533L43.9364 110.533L43.9364 100.6L41.979 100.6ZM46 92.8349L46 93.8136L46.9787 93.8136L46.9787 92.8349L46 92.8349ZM30.341 92.8349L29.3623 92.8349L29.3623 93.8136L30.341 93.8136L30.341 92.8349ZM30.341 89.1886L29.7167 88.4349L29.3623 88.7285L29.3623 89.1886L30.341 89.1886ZM40.7654 80.5538L41.7441 80.5538L41.7441 78.4723L40.1411 79.8001L40.7654 80.5538ZM40.7654 82.2763L40.7654 83.255L41.7441 83.255L41.7441 82.2763L40.7654 82.2763ZM30.341 82.2763L29.3623 82.2763L29.3623 83.255L30.341 83.255L30.341 82.2763ZM30.341 77.9365L30.341 76.9579L29.3623 76.9579L29.3623 77.9365L30.341 77.9365ZM46 77.9365L46.9787 77.9365L46.9787 76.9579L46 76.9579L46 77.9365ZM46 81.5828L46.6243 82.3365L46.9787 82.043L46.9787 81.5828L46 81.5828ZM35.5756 90.2176L34.5969 90.2176L34.5969 92.2992L36.1999 90.9713L35.5756 90.2176ZM35.5756 88.4952L35.5756 87.5165L34.5969 87.5165L34.5969 88.4952L35.5756 88.4952ZM46 88.4952L46.9787 88.4952L46.9787 87.5165L46 87.5165L46 88.4952ZM46 91.8562L30.341 91.8562L30.341 93.8136L46 93.8136L46 91.8562ZM31.3197 92.8349L31.3197 89.1886L29.3623 89.1886L29.3623 92.8349L31.3197 92.8349ZM30.9653 89.9423L41.3897 81.3075L40.1411 79.8001L29.7167 88.4349L30.9653 89.9423ZM39.7867 80.5538L39.7867 82.2763L41.7441 82.2763L41.7441 80.5538L39.7867 80.5538ZM40.7654 81.2976L30.341 81.2976L30.341 83.255L40.7654 83.255L40.7654 81.2976ZM31.3197 82.2763L31.3197 77.9365L29.3623 77.9365L29.3623 82.2763L31.3197 82.2763ZM30.341 78.9152L46 78.9152L46 76.9579L30.341 76.9579L30.341 78.9152ZM45.0213 77.9365L45.0213 81.5828L46.9787 81.5828L46.9787 77.9365L45.0213 77.9365ZM45.3757 80.8291L34.9513 89.4639L36.1999 90.9713L46.6243 82.3365L45.3757 80.8291ZM36.5543 90.2176L36.5543 88.4952L34.5969 88.4952L34.5969 90.2176L36.5543 90.2176ZM35.5756 89.4738L46 89.4738L46 87.5165L35.5756 87.5165L35.5756 89.4738ZM45.0213 88.4952L45.0213 92.8349L46.9787 92.8349L46.9787 88.4952L45.0213 88.4952ZM46 72.799L46 73.7777L46.9787 73.7777L46.9787 72.799L46 72.799ZM30.341 72.799L29.3623 72.799L29.3623 73.7777L30.341 73.7777L30.341 72.799ZM31.3029 60.831L32.1823 61.2607L31.3029 60.831ZM34.0097 57.7664L34.5303 58.5951L34.5379 58.5903L34.0097 57.7664ZM42.3313 57.7664L41.8079 58.5933L41.8107 58.5951L42.3313 57.7664ZM42.4655 68.3697L42.4655 69.3484L43.4442 69.3484L43.4442 68.3697L42.4655 68.3697ZM41.9734 63.247L42.8488 62.8093L42.8449 62.8016L41.9734 63.247ZM40.497 61.6811L40.9889 60.835L40.9805 60.8302L40.497 61.6811ZM35.844 61.6811L35.3521 60.835L35.844 61.6811ZM34.39 63.247L35.2573 63.7004L35.2634 63.6887L35.2692 63.6769L34.39 63.247ZM33.8755 68.3697L32.8968 68.3697L32.8968 69.3484L33.8755 69.3484L33.8755 68.3697ZM46 71.8203L30.341 71.8203L30.341 73.7777L46 73.7777L46 71.8203ZM31.3197 72.799L31.3197 65.3945L29.3623 65.3945L29.3623 72.799L31.3197 72.799ZM31.3197 65.3945C31.3197 63.7863 31.6174 62.4168 32.1823 61.2607L30.4236 60.4014C29.706 61.87 29.3623 63.5429 29.3623 65.3945L31.3197 65.3945ZM32.1823 61.2607C32.7488 60.1014 33.5314 59.2226 34.5303 58.5951L33.4891 56.9376C32.1615 57.7716 31.1397 58.936 30.4236 60.4014L32.1823 61.2607ZM34.5379 58.5903C35.5188 57.9615 36.7155 57.6266 38.1705 57.6266L38.1705 55.6692C36.4043 55.6692 34.8271 56.0799 33.4815 56.9424L34.5379 58.5903ZM38.1705 57.6266C39.6083 57.6266 40.808 57.9605 41.8079 58.5933L42.8547 56.9394C41.4983 56.0809 39.9241 55.6692 38.1705 55.6692L38.1705 57.6266ZM41.8107 58.5951C42.8096 59.2226 43.5923 60.1014 44.1588 61.2607L45.9174 60.4014C45.2014 58.936 44.1795 57.7716 42.8519 56.9376L41.8107 58.5951ZM44.1588 61.2607C44.7237 62.4168 45.0213 63.7863 45.0213 65.3945L46.9787 65.3945C46.9787 63.5429 46.6351 61.87 45.9174 60.4014L44.1588 61.2607ZM45.0213 65.3945L45.0213 72.799L46.9787 72.799L46.9787 65.3945L45.0213 65.3945ZM43.4442 68.3697L43.4442 65.5735L41.4869 65.5735L41.4869 68.3697L43.4442 68.3697ZM43.4442 65.5735C43.4442 64.5596 43.2581 63.628 42.8488 62.8093L41.098 63.6847C41.3449 64.1784 41.4869 64.7978 41.4869 65.5735L43.4442 65.5735ZM42.8449 62.8016C42.4179 61.9661 41.7952 61.3038 40.9889 60.835L40.0051 62.5272C40.4813 62.804 40.843 63.1857 41.1019 63.6924L42.8449 62.8016ZM40.9805 60.8302C40.1517 60.3593 39.2032 60.1432 38.1705 60.1432L38.1705 62.1005C38.9274 62.1005 39.5299 62.2573 40.0135 62.532L40.9805 60.8302ZM38.1705 60.1432C37.1269 60.1432 36.1732 60.3577 35.3521 60.835L36.3359 62.5272C36.7974 62.2589 37.3947 62.1005 38.1705 62.1005L38.1705 60.1432ZM35.3521 60.835C34.5422 61.3059 33.9233 61.9733 33.5108 62.8172L35.2692 63.6769C35.5129 63.1785 35.8634 62.8019 36.3359 62.5272L35.3521 60.835ZM33.5227 62.7936C33.0928 63.616 32.8968 64.5534 32.8968 65.5735L34.8542 65.5735C34.8542 64.804 35.0012 64.1903 35.2573 63.7004L33.5227 62.7936ZM32.8968 65.5735L32.8968 68.3697L34.8542 68.3697L34.8542 65.5735L32.8968 65.5735ZM33.8755 69.3484L42.4655 69.3484L42.4655 67.391L33.8755 67.391L33.8755 69.3484ZM75 108.474L75 109.453L75.9787 109.453L75.9787 108.474L75 108.474ZM68.3785 108.474L68.0256 107.562L68.3785 109.453L68.3785 108.474ZM71.0405 107.445L71.5431 108.285L70.6877 106.533L71.0405 107.445ZM59.341 114.447L58.3624 114.447L58.3624 116.174L59.8436 115.287L59.341 114.447ZM59.341 109.772L58.8398 108.931L58.3624 109.216L58.3624 109.772L59.341 109.772ZM67.8192 104.716L68.7979 104.716L68.7979 102.993L67.318 103.876L67.8192 104.716ZM67.8192 107.423L67.3164 108.263L68.7979 109.15L68.7979 107.423L67.8192 107.423ZM59.341 102.345L58.3623 102.345L58.3623 102.9L58.8382 103.185L59.341 102.345ZM59.341 98.0501L59.8424 97.2096L58.3623 96.3267L58.3623 98.0501L59.341 98.0501ZM71.0405 105.03L70.7011 105.947L71.5419 104.189L71.0405 105.03ZM68.3785 104.045L68.3785 103.067L68.0391 104.963L68.3785 104.045ZM75 104.045L75.9787 104.045L75.9787 103.067L75 103.067L75 104.045ZM75 107.496L68.3785 107.496L68.3785 109.453L75 109.453L75 107.496ZM68.7314 109.387L71.3934 108.358L70.6877 106.533L68.0256 107.562L68.7314 109.387ZM70.5379 106.606L58.8384 113.607L59.8436 115.287L71.5431 108.285L70.5379 106.606ZM60.3197 114.447L60.3197 109.772L58.3624 109.772L58.3624 114.447L60.3197 114.447ZM59.8423 110.613L68.3205 105.557L67.318 103.876L58.8398 108.931L59.8423 110.613ZM66.8406 104.716L66.8406 107.423L68.7979 107.423L68.7979 104.716L66.8406 104.716ZM68.3221 106.584L59.8439 101.506L58.8382 103.185L67.3164 108.263L68.3221 106.584ZM60.3197 102.345L60.3197 98.0501L58.3623 98.0501L58.3623 102.345L60.3197 102.345ZM58.8396 98.8906L70.5391 105.87L71.5419 104.189L59.8424 97.2096L58.8396 98.8906ZM71.3799 104.112L68.7179 103.127L68.0391 104.963L70.7011 105.947L71.3799 104.112ZM68.3785 105.024L75 105.024L75 103.067L68.3785 103.067L68.3785 105.024ZM74.0213 104.045L74.0213 108.474L75.9787 108.474L75.9787 104.045L74.0213 104.045ZM65.4033 90.9045L64.4246 90.9045L64.4246 91.8832L65.4033 91.8832L65.4033 90.9045ZM65.4033 83.6342L65.4033 82.6556L64.4246 82.6556L64.4246 83.6342L65.4033 83.6342ZM68.714 83.6342L69.6927 83.6342L69.6927 82.6556L68.714 82.6556L68.714 83.6342ZM68.714 90.9045L68.714 91.8832L69.6927 91.8832L69.6927 90.9045L68.714 90.9045ZM71.5774 90.5913L71.5774 91.57L72.5561 91.57L72.5561 90.5913L71.5774 90.5913ZM71.5774 82.4039L71.5774 81.4252L70.5987 81.4252L70.5987 82.4039L71.5774 82.4039ZM75 82.4039L75.9787 82.4039L75.9787 81.4252L75 81.4252L75 82.4039ZM75 94.9758L75 95.9545L75.9787 95.9545L75.9787 94.9758L75 94.9758ZM59.341 94.9758L58.3623 94.9758L58.3623 95.9545L59.341 95.9545L59.341 94.9758ZM59.341 82.6947L59.341 81.716L58.3623 81.716L58.3623 82.6947L59.341 82.6947ZM62.7636 82.6947L63.7423 82.6947L63.7423 81.716L62.7636 81.716L62.7636 82.6947ZM62.7636 90.5913L61.7849 90.5913L61.7849 91.57L62.7636 91.57L62.7636 90.5913ZM66.382 90.9045L66.382 83.6342L64.4246 83.6342L64.4246 90.9045L66.382 90.9045ZM65.4033 84.6129L68.714 84.6129L68.714 82.6556L65.4033 82.6556L65.4033 84.6129ZM67.7354 83.6342L67.7354 90.9045L69.6927 90.9045L69.6927 83.6342L67.7354 83.6342ZM68.714 89.9258L65.4033 89.9258L65.4033 91.8832L68.714 91.8832L68.714 89.9258ZM72.5561 90.5913L72.5561 82.4039L70.5987 82.4039L70.5987 90.5913L72.5561 90.5913ZM71.5774 83.3826L75 83.3826L75 81.4252L71.5774 81.4252L71.5774 83.3826ZM74.0213 82.4039L74.0213 94.9758L75.9787 94.9758L75.9787 82.4039L74.0213 82.4039ZM75 93.9971L59.341 93.9971L59.341 95.9545L75 95.9545L75 93.9971ZM60.3197 94.9758L60.3197 82.6947L58.3623 82.6947L58.3623 94.9758L60.3197 94.9758ZM59.341 83.6734L62.7636 83.6734L62.7636 81.716L59.341 81.716L59.341 83.6734ZM61.7849 82.6947L61.7849 90.5913L63.7423 90.5913L63.7423 82.6947L61.7849 82.6947ZM62.7636 91.57L71.5774 91.57L71.5774 89.6126L62.7636 89.6126L62.7636 91.57ZM75 77.9327L75 78.9114L75.9787 78.9114L75.9787 77.9327L75 77.9327ZM59.341 77.9327L58.3623 77.9327L58.3623 78.9114L59.341 78.9114L59.341 77.9327ZM59.341 73.5034L59.341 72.5248L58.3623 72.5248L58.3623 73.5034L59.341 73.5034ZM71.4879 73.5034L71.4879 74.4821L72.4666 74.4821L72.4666 73.5034L71.4879 73.5034ZM71.4879 66.0319L71.4879 65.0532L70.5092 65.0532L70.5092 66.0319L71.4879 66.0319ZM75 66.0319L75.9787 66.0319L75.9787 65.0532L75 65.0532L75 66.0319ZM75 76.954L59.341 76.954L59.341 78.9114L75 78.9114L75 76.954ZM60.3197 77.9327L60.3197 73.5034L58.3623 73.5034L58.3623 77.9327L60.3197 77.9327ZM59.341 74.4821L71.4879 74.4821L71.4879 72.5248L59.341 72.5248L59.341 74.4821ZM72.4666 73.5034L72.4666 66.0319L70.5092 66.0319L70.5092 73.5034L72.4666 73.5034ZM71.4879 67.0106L75 67.0106L75 65.0532L71.4879 65.0532L71.4879 67.0106ZM74.0213 66.0319L74.0213 77.9327L75.9787 77.9327L75.9787 66.0319L74.0213 66.0319ZM75 62.2659L75 63.2446L75.9787 63.2446L75.9787 62.2659L75 62.2659ZM59.341 62.2659L58.3623 62.2659L58.3623 63.2446L59.341 63.2446L59.341 62.2659ZM59.341 57.8366L59.341 56.8579L58.3623 56.8579L58.3623 57.8366L59.341 57.8366ZM71.4879 57.8366L71.4879 58.8153L72.4666 58.8153L72.4666 57.8366L71.4879 57.8366ZM71.4879 50.3651L71.4879 49.3864L70.5092 49.3864L70.5092 50.3651L71.4879 50.3651ZM75 50.3651L75.9787 50.3651L75.9787 49.3864L75 49.3864L75 50.3651ZM75 61.2872L59.341 61.2872L59.341 63.2446L75 63.2446L75 61.2872ZM60.3197 62.2659L60.3197 57.8366L58.3623 57.8366L58.3623 62.2659L60.3197 62.2659ZM59.341 58.8153L71.4879 58.8153L71.4879 56.8579L59.341 56.8579L59.341 58.8153ZM72.4666 57.8366L72.4666 50.3651L70.5092 50.3651L70.5092 57.8366L72.4666 57.8366ZM71.4879 51.3437L75 51.3437L75 49.3864L71.4879 49.3864L71.4879 51.3437ZM74.0213 50.3651L74.0213 62.2659L75.9787 62.2659L75.9787 50.3651L74.0213 50.3651ZM74.7092 42.4101L75.624 42.758L74.7092 42.4101ZM73.0091 45.184L73.7145 45.8623L73.7212 45.8554L73.7277 45.8484L73.0091 45.184ZM70.4142 46.9959L70.8079 47.8919L70.4142 46.9959ZM63.9269 46.9959L63.5332 47.8919L63.9269 46.9959ZM61.3543 45.184L62.0666 44.5128L62.0662 44.5124L61.3543 45.184ZM59.6318 42.4101L58.7171 42.758L59.6318 42.4101ZM59.6318 35.4754L60.545 35.8276L60.5466 35.8233L59.6318 35.4754ZM61.3543 32.7239L62.0598 33.4023L62.0666 33.3951L61.3543 32.7239ZM63.9269 30.9119L64.3206 31.808L64.3319 31.8029L63.9269 30.9119ZM70.4365 30.9119L70.0366 31.8052L70.0428 31.8079L70.4365 30.9119ZM73.0091 32.7239L73.7213 32.0527L73.0091 32.7239ZM74.7092 35.4754L73.7944 35.8233L73.7961 35.8276L74.7092 35.4754ZM71.3313 37.2874L70.4226 37.6509L70.4264 37.66L71.3313 37.2874ZM70.4365 35.9452L69.7577 36.6501L69.7582 36.6506L70.4365 35.9452ZM69.0048 35.0504L68.6372 35.9574L68.6478 35.9617L68.6585 35.9657L69.0048 35.0504ZM65.3362 35.0504L65.6825 35.9657L65.6977 35.96L65.7126 35.9538L65.3362 35.0504ZM63.9269 35.9452L64.5918 36.6633L64.6056 36.6505L64.6189 36.6372L63.9269 35.9452ZM63.0097 37.2874L63.9147 37.66L63.9184 37.6509L63.0097 37.2874ZM63.0097 40.6205L62.101 40.984L62.1047 40.9931L63.0097 40.6205ZM63.9269 41.9627L63.248 42.6677L63.2485 42.6682L63.9269 41.9627ZM65.3362 42.8575L64.9684 43.7646L64.9815 43.7696L65.3362 42.8575ZM69.0048 42.8575L69.3512 43.7728L69.3619 43.7688L69.3725 43.7645L69.0048 42.8575ZM70.4365 41.9627L71.1015 42.6808L71.1153 42.668L71.1286 42.6547L70.4365 41.9627ZM71.3313 40.6205L72.2363 40.9932L72.24 40.984L71.3313 40.6205ZM74.3345 38.9428C74.3345 40.0891 74.1506 41.1257 73.7944 42.0622L75.624 42.758C76.0731 41.5768 76.2919 40.3018 76.2919 38.9428L74.3345 38.9428ZM73.7944 42.0622C73.4339 43.0102 72.9318 43.8259 72.2904 44.5196L73.7277 45.8484C74.5479 44.9612 75.1791 43.9277 75.624 42.758L73.7944 42.0622ZM72.3036 44.5056C71.6466 45.1889 70.8875 45.719 70.0205 46.0999L70.8079 47.8919C71.9094 47.4079 72.8802 46.73 73.7145 45.8623L72.3036 44.5056ZM70.0205 46.0999C69.1717 46.4729 68.2262 46.666 67.1705 46.666L67.1705 48.6233C68.4711 48.6233 69.688 48.384 70.8079 47.8919L70.0205 46.0999ZM67.1705 46.666C66.1148 46.666 65.1693 46.4729 64.3206 46.0999L63.5332 47.8919C64.653 48.384 65.8699 48.6233 67.1705 48.6233L67.1705 46.666ZM64.3206 46.0999C63.4554 45.7198 62.7065 45.1918 62.0666 44.5128L60.642 45.8552C61.4637 46.7271 62.4298 47.4071 63.5332 47.8919L64.3206 46.0999ZM62.0662 44.5124C61.4125 43.8195 60.9055 43.0061 60.5466 42.0622L58.7171 42.758C59.1634 43.9318 59.8048 44.9677 60.6424 45.8556L62.0662 44.5124ZM60.5466 42.0622C60.1905 41.1257 60.0065 40.0891 60.0065 38.9428L58.0492 38.9428C58.0492 40.3018 58.2679 41.5768 58.7171 42.758L60.5466 42.0622ZM60.0065 38.9428C60.0065 37.7797 60.191 36.7453 60.545 35.8276L58.7187 35.1232C58.2674 36.2934 58.0492 37.5706 58.0492 38.9428L60.0065 38.9428ZM60.5466 35.8233C60.905 34.8809 61.4102 34.0778 62.0598 33.4022L60.6489 32.0456C59.8071 32.921 59.164 33.9522 58.7171 35.1275L60.5466 35.8233ZM62.0666 33.3951C62.7065 32.716 63.4554 32.1881 64.3206 31.8079L63.5332 30.0159C62.4298 30.5007 61.4637 31.1808 60.642 32.0527L62.0666 33.3951ZM64.3319 31.8029C65.1779 31.4183 66.1194 31.2195 67.1705 31.2195L67.1705 29.2622C65.8653 29.2622 64.6444 29.5107 63.5219 30.021L64.3319 31.8029ZM67.1705 31.2195C68.2215 31.2195 69.1726 31.4183 70.0366 31.8052L70.8365 30.0187C69.7021 29.5108 68.4759 29.2622 67.1705 29.2622L67.1705 31.2195ZM70.0428 31.8079C70.908 32.1881 71.6569 32.716 72.2968 33.3951L73.7213 32.0527C72.8997 31.1808 71.9336 30.5007 70.8302 30.0159L70.0428 31.8079ZM72.2968 33.3951C72.934 34.0713 73.4345 34.8768 73.7944 35.8233L75.624 35.1275C75.1786 33.9564 74.5456 32.9275 73.7213 32.0527L72.2968 33.3951ZM73.7961 35.8276C74.15 36.7453 74.3345 37.7797 74.3345 38.9428L76.2919 38.9428C76.2919 37.5706 76.0737 36.2934 75.6223 35.1232L73.7961 35.8276ZM72.6232 38.9428C72.6232 38.2297 72.4979 37.55 72.2363 36.9147L70.4264 37.66C70.5823 38.0388 70.6658 38.4627 70.6658 38.9428L72.6232 38.9428ZM72.24 36.9239C71.982 36.2788 71.6073 35.7132 71.1149 35.2397L69.7582 36.6506C70.0412 36.9228 70.2631 37.252 70.4226 37.6509L72.24 36.9239ZM71.1154 35.2402C70.612 34.7555 70.0199 34.3881 69.3512 34.135L68.6585 35.9657C69.0933 36.1303 69.4557 36.3594 69.7577 36.6501L71.1154 35.2402ZM69.3725 34.1434C68.69 33.8667 67.9517 33.7361 67.1705 33.7361L67.1705 35.6935C67.7315 35.6935 68.2161 35.7867 68.6372 35.9574L69.3725 34.1434ZM67.1705 33.7361C66.3781 33.7361 65.6353 33.8655 64.9598 34.147L65.7126 35.9538C66.1108 35.7879 66.5909 35.6935 67.1705 35.6935L67.1705 33.7361ZM64.9898 34.135C64.3183 34.3891 63.728 34.76 63.2348 35.2531L64.6189 36.6372C64.9013 36.3548 65.2505 36.1292 65.6825 35.9657L64.9898 34.135ZM63.2619 35.2271C62.7501 35.701 62.3624 36.2705 62.101 36.9239L63.9184 37.6509C64.0746 37.2603 64.2984 36.935 64.5918 36.6633L63.2619 35.2271ZM62.1047 36.9147C61.8432 37.55 61.7178 38.2297 61.7178 38.9428L63.6752 38.9428C63.6752 38.4628 63.7587 38.0388 63.9147 37.66L62.1047 36.9147ZM61.7178 38.9428C61.7178 39.6561 61.8432 40.3395 62.101 40.984L63.9184 40.257C63.7586 39.8576 63.6752 39.4225 63.6752 38.9428L61.7178 38.9428ZM62.1047 40.9931C62.3661 41.6279 62.7498 42.1878 63.248 42.6677L64.6057 41.2577C64.2987 40.962 64.0709 40.6272 63.9147 40.2479L62.1047 40.9931ZM63.2485 42.6682C63.7352 43.1361 64.3136 43.499 64.9685 43.7645L65.7039 41.9505C65.2552 41.7686 64.894 41.535 64.6052 41.2572L63.2485 42.6682ZM64.9815 43.7696C65.6508 44.0299 66.3858 44.1494 67.1705 44.1494L67.1705 42.192C66.5832 42.192 66.0953 42.1026 65.6909 41.9454L64.9815 43.7696ZM67.1705 44.1494C67.9438 44.1494 68.6746 44.0289 69.3512 43.7728L68.6585 41.9421C68.2315 42.1037 67.7394 42.192 67.1705 42.192L67.1705 44.1494ZM69.3725 43.7645C70.0247 43.5001 70.6048 43.1406 71.1015 42.6808L69.7716 41.2446C69.4629 41.5304 69.0886 41.7675 68.6372 41.9505L69.3725 43.7645ZM71.1286 42.6547C71.6077 42.1756 71.9783 41.6197 72.2363 40.9931L70.4264 40.2479C70.2668 40.6354 70.0409 40.9743 69.7445 41.2707L71.1286 42.6547ZM72.24 40.984C72.4978 40.3395 72.6232 39.6561 72.6232 38.9428L70.6658 38.9428C70.6658 39.4225 70.5824 39.8576 70.4226 40.257L72.24 40.984ZM75 22.562L75.3019 23.493L75.9787 23.2735L75.9787 22.562L75 22.562ZM59.341 27.64L58.3623 27.64L58.3623 28.9862L59.6429 28.5709L59.341 27.64ZM59.341 23.0765L59.0468 22.1431L58.3623 22.3588L58.3623 23.0765L59.341 23.0765ZM72.8972 18.8039L73.8759 18.8039L73.8759 17.4693L72.603 17.8704L72.8972 18.8039ZM72.8972 21.108L72.5891 22.0369L73.8759 22.4637L73.8759 21.108L72.8972 21.108ZM59.341 16.6116L58.3623 16.6116L58.3623 17.3181L59.0329 17.5405L59.341 16.6116ZM59.341 12.5403L59.0482 11.6064L58.3623 11.8215L58.3623 12.5403L59.341 12.5403ZM72.8972 8.28998L73.8759 8.28998L73.8759 6.95747L72.6044 7.35612L72.8972 8.28998ZM72.8972 10.5046L72.5947 11.4353L73.8759 11.8519L73.8759 10.5046L72.8972 10.5046ZM59.341 6.09772L58.3623 6.09772L58.3623 6.80867L59.0385 7.02846L59.341 6.09772ZM59.341 1.8698L59.6429 0.938848L58.3623 0.523572L58.3623 1.8698L59.341 1.8698ZM75 6.94778L75.9787 6.94778L75.9787 6.23629L75.3019 6.01683L75 6.94778ZM75 11.6902L75.2937 12.6238L75.9787 12.4083L75.9787 11.6902L75 11.6902ZM63.4795 15.3141L62.5008 15.3141L62.5008 16.648L63.7731 16.2477L63.4795 15.3141ZM63.4795 14.0391L63.7846 13.1092L62.5008 12.6879L62.5008 14.0391L63.4795 14.0391ZM75 17.8196L75.9787 17.8196L75.9787 17.1107L75.3051 16.8897L75 17.8196ZM74.6981 21.631L59.0391 26.709L59.6429 28.5709L75.3019 23.493L74.6981 21.631ZM60.3197 27.64L60.3197 23.0765L58.3623 23.0765L58.3623 27.64L60.3197 27.64ZM59.6352 24.0099L73.1914 19.7373L72.603 17.8704L59.0468 22.1431L59.6352 24.0099ZM71.9185 18.8039L71.9185 21.108L73.8759 21.108L73.8759 18.8039L71.9185 18.8039ZM73.2053 20.179L59.6491 15.6827L59.0329 17.5405L72.5891 22.0369L73.2053 20.179ZM60.3197 16.6116L60.3197 12.5403L58.3623 12.5403L58.3623 16.6116L60.3197 16.6116ZM59.6338 13.4741L73.19 9.22384L72.6044 7.35612L59.0482 11.6064L59.6338 13.4741ZM71.9185 8.28998L71.9185 10.5046L73.8759 10.5046L73.8759 8.28998L71.9185 8.28998ZM73.1998 9.57386L59.6436 5.16698L59.0385 7.02846L72.5947 11.4353L73.1998 9.57386ZM60.3197 6.09772L60.3197 1.8698L58.3623 1.8698L58.3623 6.09772L60.3197 6.09772ZM59.0391 2.80076L74.6981 7.87874L75.3019 6.01683L59.6429 0.938848L59.0391 2.80076ZM74.0213 6.94778L74.0213 11.6902L75.9787 11.6902L75.9787 6.94778L74.0213 6.94778ZM74.7063 10.7566L63.1858 14.3806L63.7731 16.2477L75.2937 12.6238L74.7063 10.7566ZM64.4582 15.3141L64.4582 14.0391L62.5008 14.0391L62.5008 15.3141L64.4582 15.3141ZM63.1743 14.969L74.6948 18.7495L75.3051 16.8897L63.7846 13.1092L63.1743 14.969ZM74.0213 17.8196L74.0213 22.562L75.9787 22.562L75.9787 17.8196L74.0213 17.8196Z" fill="#5E5E5E" mask="url(#path-1-outside-1_1_181)"/>
</svg>
